<svg id="レイヤー_1" data-name="レイヤー 1" xmlns="http://www.w3.org/2000/svg" viewBox="0 0 358.31 18.5"><title>tagline</title><path d="M314.39,315.1h-4.2l-2.57-9.26-3.17,9.26h-4.2l-3.06-14.24h3.54l2,10.25,3-9.66H310l2.31,9.64,2.35-10.23H318Z" transform="translate(-297.18 -300.55)" style="fill:#565656"/><path d="M322.74,311.36a2,2,0,0,0,2.18,1.83,7.52,7.52,0,0,0,3.1-.86l1,2.29a10.92,10.92,0,0,1-4.27.79,4.94,4.94,0,0,1-5.15-5.24c0-2.33,1.08-5.43,5-5.43s5.06,2,5.06,6.62h-6.91Zm1.87-4.31c-0.44,0-1.78.11-1.85,2.09h3.87C326.48,307.46,325.6,307,324.61,307Z" transform="translate(-297.18 -300.55)" style="fill:#565656"/><path d="M344.68,315.1s-0.4-1-.4-0.92a4.51,4.51,0,0,1-2.51,1.23c-2.82,0-4-1.08-4-2.95,0-2,1.3-3.78,5.59-3.78h0.77v-0.33a1.05,1.05,0,0,0-1.14-1.3,9.4,9.4,0,0,0-3.81.88l-1-2.46a16.82,16.82,0,0,1,5-.73c2.31,0,4,1,4,3.21V312c0,0.79.31,2,.44,3.08h-2.88Zm-0.57-4.27h-0.48c-2,0-2.77.51-2.77,1.5,0,0.73.88,0.77,1.54,0.77a2.89,2.89,0,0,0,1.72-1.1v-1.17Z" transform="translate(-297.18 -300.55)" style="fill:#565656"/><path d="M356.27,307.42A1.71,1.71,0,0,0,355,307c-1.1,0-1.61,1.56-1.83,2.13v6h-3v-7.81a13.17,13.17,0,0,0-.29-2.24h2.79l0.44,1.39c0.35-.59,1.19-1.72,2.2-1.72a6.73,6.73,0,0,1,2,.26Z" transform="translate(-297.18 -300.55)" style="fill:#565656"/><path d="M361.66,311.36a2,2,0,0,0,2.18,1.83,7.52,7.52,0,0,0,3.1-.86l1,2.29a10.92,10.92,0,0,1-4.27.79,4.94,4.94,0,0,1-5.15-5.24c0-2.33,1.08-5.43,5-5.43s5.06,2,5.06,6.62h-6.91Zm1.87-4.31c-0.44,0-1.78.11-1.85,2.09h3.87C365.4,307.46,364.52,307,363.53,307Z" transform="translate(-297.18 -300.55)" style="fill:#565656"/><path d="M393.67,315.1h-4.2l-2.57-9.26-3.17,9.26h-4.2l-3.06-14.24H380l2,10.25,3-9.66h4.22l2.31,9.64L394,300.86h3.3Z" transform="translate(-297.18 -300.55)" style="fill:#565656"/><path d="M402,311.36a2,2,0,0,0,2.18,1.83,7.52,7.52,0,0,0,3.1-.86l1,2.29a10.92,10.92,0,0,1-4.27.79,4.94,4.94,0,0,1-5.15-5.24c0-2.33,1.08-5.43,5-5.43s5.06,2,5.06,6.62H402ZM403.9,307c-0.44,0-1.78.11-1.85,2.09h3.87C405.77,307.46,404.89,307,403.9,307Z" transform="translate(-297.18 -300.55)" style="fill:#565656"/><path d="M416.46,315.41a2.52,2.52,0,0,1-2.22-1.23l-0.44.92H411a19.5,19.5,0,0,0,.29-3.08V300.64h3v5.63a3.21,3.21,0,0,1,2.57-1.54c3,0,4.22,2.49,4.22,5.28S419.5,315.41,416.46,315.41ZM416.22,307c-0.79,0-1.32.95-2,2v2.44a2,2,0,0,0,1.67,1.56c0.9,0,2.09-.37,2.09-3S417.14,307,416.22,307Z" transform="translate(-297.18 -300.55)" style="fill:#565656"/><path d="M436.35,315.54c-5,0-6.87-3-6.87-7.55,0-4,1.65-7.44,6.93-7.44a14.14,14.14,0,0,1,3.92.59l-1,2.79a7.36,7.36,0,0,0-2.9-.81c-2.46,0-3.48,1.54-3.48,4.84,0,3.5.92,5,3.34,5a7.94,7.94,0,0,0,3.19-.92l1,2.79A11.51,11.51,0,0,1,436.35,315.54Z" transform="translate(-297.18 -300.55)" style="fill:#565656"/><path d="M448.74,307.42a1.71,1.71,0,0,0-1.25-.42c-1.1,0-1.61,1.56-1.83,2.13v6h-3v-7.81a13.12,13.12,0,0,0-.29-2.24h2.79l0.44,1.39c0.35-.59,1.19-1.72,2.2-1.72a6.74,6.74,0,0,1,2,.26Z" transform="translate(-297.18 -300.55)" style="fill:#565656"/><path d="M454.13,311.36a2,2,0,0,0,2.18,1.83,7.52,7.52,0,0,0,3.1-.86l1,2.29a10.92,10.92,0,0,1-4.27.79,4.94,4.94,0,0,1-5.15-5.24c0-2.33,1.08-5.43,5-5.43s5.06,2,5.06,6.62h-6.91ZM456,307c-0.44,0-1.78.11-1.85,2.09H458C457.87,307.46,457,307,456,307Z" transform="translate(-297.18 -300.55)" style="fill:#565656"/><path d="M469.83,315.1s-0.4-1-.4-0.92a4.52,4.52,0,0,1-2.51,1.23c-2.82,0-4-1.08-4-2.95,0-2,1.3-3.78,5.59-3.78h0.77v-0.33a1.05,1.05,0,0,0-1.14-1.3,9.4,9.4,0,0,0-3.81.88l-1-2.46a16.82,16.82,0,0,1,5-.73c2.31,0,4,1,4,3.21V312c0,0.79.31,2,.44,3.08h-2.88Zm-0.57-4.27h-0.48c-2,0-2.77.51-2.77,1.5,0,0.73.88,0.77,1.54,0.77a2.89,2.89,0,0,0,1.72-1.1v-1.17Z" transform="translate(-297.18 -300.55)" style="fill:#565656"/><path d="M479.65,317.52c-2.09-.79-4-2-4-5v-5.21h-1.52V305h1.52v-2.75h3V305h1.94v2.33h-1.94v5.52c0,1.3.57,1.76,2.09,2.2Z" transform="translate(-297.18 -300.55)" style="fill:#565656"/><path d="M487.06,315.43c-3.76,0-5.24-2.51-5.24-5.41s1.5-5.3,5.24-5.3,5.21,2.38,5.21,5.3S490.8,315.43,487.06,315.43Zm0-8.43c-1.32,0-2.16.55-2.16,3,0,2.2.79,3.12,2.16,3.12,1.17,0,2.13-.68,2.13-3.12S488.45,307,487.06,307Z" transform="translate(-297.18 -300.55)" style="fill:#565656"/><path d="M500.68,307.42a1.71,1.71,0,0,0-1.25-.42c-1.1,0-1.61,1.56-1.83,2.13v6h-3v-7.81a13.12,13.12,0,0,0-.29-2.24h2.79l0.44,1.39c0.35-.59,1.19-1.72,2.2-1.72a6.74,6.74,0,0,1,2,.26Z" transform="translate(-297.18 -300.55)" style="fill:#565656"/><path d="M515.81,303.46V315.1h-3.37V303.46h-3.76v-2.6h10.89v2.6h-3.76Z" transform="translate(-297.18 -300.55)" style="fill:#565656"/><path d="M524.06,311.36a2,2,0,0,0,2.18,1.83,7.52,7.52,0,0,0,3.1-.86l1,2.29a10.92,10.92,0,0,1-4.27.79,4.94,4.94,0,0,1-5.15-5.24c0-2.33,1.08-5.43,5-5.43s5.06,2,5.06,6.62h-6.91Zm1.87-4.31c-0.44,0-1.78.11-1.85,2.09H528C527.8,307.46,526.92,307,525.93,307Z" transform="translate(-297.18 -300.55)" style="fill:#565656"/><path d="M539.77,315.1s-0.4-1-.4-0.92a4.52,4.52,0,0,1-2.51,1.23c-2.82,0-4-1.08-4-2.95,0-2,1.3-3.78,5.59-3.78h0.77v-0.33A1.05,1.05,0,0,0,538,307a9.4,9.4,0,0,0-3.81.88l-1-2.46a16.82,16.82,0,0,1,5-.73c2.31,0,4,1,4,3.21V312c0,0.79.31,2,.44,3.08h-2.88Zm-0.57-4.27h-0.48c-2,0-2.77.51-2.77,1.5,0,0.73.88,0.77,1.54,0.77a2.89,2.89,0,0,0,1.72-1.1v-1.17Z" transform="translate(-297.18 -300.55)" style="fill:#565656"/><path d="M557.7,315.1v-6.38c0-1.5-.44-1.72-1-1.72-1.14,0-1.85,1.1-2.22,2.11v6h-3v-6.38c0-1.58-.33-1.72-1.21-1.72s-1.67,1.5-1.94,2v6.12h-3v-7.75c0-.84-0.22-1.56-0.29-2.31h2.79l0.42,1.25a4,4,0,0,1,2.62-1.58,3.31,3.31,0,0,1,3.26,1.43,3.38,3.38,0,0,1,3.08-1.43c2.42,0,3.56,1.28,3.56,4v6.42h-3Z" transform="translate(-297.18 -300.55)" style="fill:#565656"/><path d="M569.71,303.24v-2.38h3.12v2.38h-3.12Zm0.07,11.86V305h3V315.1h-3Z" transform="translate(-297.18 -300.55)" style="fill:#565656"/><path d="M581.86,315.1v-6.54c0-.7,0-1.56-1.23-1.56-0.9,0-1.5,1-2,2v6.09h-3v-7.92a11.63,11.63,0,0,0-.29-2.13h2.79l0.44,1.23c0.44-.42,1.3-1.56,2.62-1.56,3.08,0,3.7,1.74,3.7,4v6.34h-3Z" transform="translate(-297.18 -300.55)" style="fill:#565656"/><path d="M593.65,317.83l-0.88-2.73c2-.4,4.6-0.53,4.6-4.27v-10h3.34v9.75C600.71,315.58,596.86,316.9,593.65,317.83Z" transform="translate(-297.18 -300.55)" style="fill:#565656"/><path d="M610.59,315.1s-0.4-1-.4-0.92a4.52,4.52,0,0,1-2.51,1.23c-2.82,0-4-1.08-4-2.95,0-2,1.3-3.78,5.59-3.78H610v-0.33a1.05,1.05,0,0,0-1.14-1.3,9.4,9.4,0,0,0-3.81.88l-1-2.46a16.82,16.82,0,0,1,5-.73c2.31,0,4,1,4,3.21V312c0,0.79.31,2,.44,3.08h-2.88ZM610,310.83h-0.48c-2,0-2.77.51-2.77,1.5,0,0.73.88,0.77,1.54,0.77A2.89,2.89,0,0,0,610,312v-1.17Z" transform="translate(-297.18 -300.55)" style="fill:#565656"/><path d="M621.67,315.43a3.49,3.49,0,0,1-2.57-1.23v4.86h-3V308.17a19.82,19.82,0,0,0-.29-3.12h2.79l0.48,1.23a3.16,3.16,0,0,1,2.42-1.56c3.17,0,4.4,2.51,4.4,5.41S624.6,315.43,621.67,315.43Zm-1-8.43c-0.68,0-1.19,1.06-1.67,2v2.51a2.59,2.59,0,0,0,2,1.65c0.92,0,1.78-.44,1.78-3.06S622,307,620.71,307Z" transform="translate(-297.18 -300.55)" style="fill:#565656"/><path d="M634.66,315.1s-0.4-1-.4-0.92a4.52,4.52,0,0,1-2.51,1.23c-2.82,0-4-1.08-4-2.95,0-2,1.3-3.78,5.59-3.78h0.77v-0.33a1.05,1.05,0,0,0-1.14-1.3,9.4,9.4,0,0,0-3.81.88l-1-2.46a16.82,16.82,0,0,1,5-.73c2.31,0,4,1,4,3.21V312c0,0.79.31,2,.44,3.08h-2.88Zm-0.57-4.27H633.6c-2,0-2.77.51-2.77,1.5,0,0.73.88,0.77,1.54,0.77a2.89,2.89,0,0,0,1.72-1.1v-1.17Z" transform="translate(-297.18 -300.55)" style="fill:#565656"/><path d="M646.4,315.1v-6.54c0-.7,0-1.56-1.23-1.56-0.9,0-1.5,1-2,2v6.09h-3v-7.92a11.63,11.63,0,0,0-.29-2.13h2.79l0.44,1.23c0.44-.42,1.3-1.56,2.62-1.56,3.08,0,3.7,1.74,3.7,4v6.34h-3Z" transform="translate(-297.18 -300.55)" style="fill:#565656"/><path d="M652.39,315.1v-2.73h3.1v2.73h-3.1Z" transform="translate(-297.18 -300.55)" style="fill:#565656"/></svg>