<svg id="レイヤー_1" data-name="レイヤー 1" xmlns="http://www.w3.org/2000/svg" viewBox="0 0 137.35 34"><defs><style>.cls-1{fill:#fff;}</style></defs><title>flavas</title><path class="cls-1" d="M183.89-88v0.3h4.2v5.25h-4.2v17.6H177v-17.6h-3.45v-5.25H177v-0.55c0-6.35,4.3-8.55,11-9.85l2.4,5.55C186.24-92.09,183.89-91.09,183.89-88Z" transform="translate(-173.59 98.14)"/><path class="cls-1" d="M196-64.89V-97.74h6.85v32.85H196Z" transform="translate(-173.59 98.14)"/><path class="cls-1" d="M224.94-64.89s-0.9-2.2-.9-2.1c-1.3,1-3.4,2.8-5.7,2.8-6.4,0-9.2-2.45-9.2-6.7,0-4.65,3-8.6,12.7-8.6h1.75v-0.75c0-1.1,0-3-2.6-3a21.4,21.4,0,0,0-8.65,2L210-86.79a38.22,38.22,0,0,1,11.45-1.65c5.25,0,9.05,2.3,9.05,7.3v9.25c0,1.8.7,4.55,1,7h-6.55Zm-1.3-9.7h-1.1c-4.5,0-6.3,1.15-6.3,3.4,0,1.65,2,1.75,3.5,1.75s3.05-1.55,3.9-2.5v-2.65Z" transform="translate(-173.59 98.14)"/><path class="cls-1" d="M251.69-64.89h-6.9l-8.85-22.85h7.3l5.2,15,5-15h7.2Z" transform="translate(-173.59 98.14)"/><path class="cls-1" d="M280.14-64.89s-0.9-2.2-.9-2.1c-1.3,1-3.4,2.8-5.7,2.8-6.4,0-9.2-2.45-9.2-6.7,0-4.65,3-8.6,12.7-8.6h1.75v-0.75c0-1.1,0-3-2.6-3a21.4,21.4,0,0,0-8.65,2l-2.35-5.6a38.22,38.22,0,0,1,11.45-1.65c5.25,0,9.05,2.3,9.05,7.3v9.25c0,1.8.7,4.55,1,7h-6.55Zm-1.3-9.7h-1.1c-4.5,0-6.3,1.15-6.3,3.4,0,1.65,2,1.75,3.5,1.75s3.05-1.55,3.9-2.5v-2.65Z" transform="translate(-173.59 98.14)"/><path class="cls-1" d="M300.39-64.14a34.59,34.59,0,0,1-9.15-1.65l2.35-5.6c2.45,0.85,4.3,2.05,6.9,2.05,3.3,0,3.45-1,3.45-1.65v-0.15c0-2.5-12.1-.75-12.1-10.4,0-5.85,5.25-7,10.2-7a30.77,30.77,0,0,1,8.2,1.4l-2.3,5.55c-2.3-1.05-3.75-1.75-5.85-1.75-2.4,0-3.25.5-3.25,1.6,0,3.3,12.1,1.55,12.1,10.5C310.94-65.49,305.49-64.14,300.39-64.14Z" transform="translate(-173.59 98.14)"/></svg>